<svg xmlns="http://www.w3.org/2000/svg" width="512pt" height="512pt" viewBox="0 -16 512 512">
    <path d="M92.309 52.23c0-13.87-11.282-25.152-25.153-25.152S42 38.36 42 52.23c0 13.872 11.285 25.157 25.152 25.157 13.871 0 25.157-11.285 25.157-25.157zM67.156 62.387C61.555 62.387 57 57.828 57 52.23c0-5.597 4.555-10.152 10.152-10.152 5.602 0 10.157 4.555 10.157 10.152 0 5.598-4.555 10.157-10.153 10.157zm0 0M126.914 77.387c13.871 0 25.156-11.285 25.156-25.157 0-13.87-11.285-25.152-25.156-25.152-13.867 0-25.152 11.281-25.152 25.152 0 13.872 11.281 25.157 25.152 25.157zm0-35.309c5.602 0 10.156 4.555 10.156 10.152 0 5.598-4.554 10.157-10.156 10.157-5.598 0-10.152-4.559-10.152-10.157 0-5.597 4.554-10.152 10.152-10.152zm0 0M186.676 77.387c13.867 0 25.152-11.285 25.152-25.157 0-13.87-11.285-25.152-25.152-25.152-13.871 0-25.156 11.281-25.156 25.152 0 13.872 11.285 25.157 25.156 25.157zm0-35.309c5.597 0 10.152 4.555 10.152 10.152 0 5.598-4.555 10.157-10.152 10.157-5.602 0-10.156-4.559-10.156-10.157 0-5.597 4.554-10.152 10.156-10.152zm0 0M269.668 59.73h182.668c4.14 0 7.5-3.355 7.5-7.5 0-4.14-3.36-7.5-7.5-7.5H269.668c-4.145 0-7.5 3.36-7.5 7.5 0 4.145 3.355 7.5 7.5 7.5zm0 0"/>
    <path d="M480.684 0H31.316C14.051 0 0 14.047 0 31.316v417.25c0 17.27 14.05 31.317 31.316 31.317h449.368c17.265 0 31.316-14.051 31.316-31.317V31.316C512 14.016 497.914 0 480.684 0zm0 464.883H31.316c-8.996 0-16.316-7.32-16.316-16.317V104.465h41.809c4.144 0 7.5-3.36 7.5-7.5 0-4.145-3.356-7.5-7.5-7.5H15V31.316C15 22.32 22.32 15 31.316 15h449.368C489.695 15 497 22.336 497 31.316v58.149H84.809c-4.141 0-7.5 3.355-7.5 7.5 0 4.14 3.359 7.5 7.5 7.5H497v344.101c0 8.997-7.32 16.317-16.316 16.317zm0 0"/>
    <path d="M416.355 127.441h-48.507c-13.094 0-23.746 10.653-23.746 23.746v48.508c0 13.094 10.652 23.746 23.746 23.746h48.507c13.094 0 23.747-10.652 23.747-23.746v-48.507c0-13.094-10.653-23.747-23.747-23.747zm8.747 72.254c0 4.82-3.922 8.746-8.747 8.746h-48.507c-4.82 0-8.746-3.925-8.746-8.746v-48.507c0-4.825 3.925-8.747 8.746-8.747h48.507c4.825 0 8.747 3.922 8.747 8.746zm0 0M144.152 350.473H95.645c-13.094 0-23.747 10.652-23.747 23.746v48.508c0 13.093 10.653 23.746 23.747 23.746h48.507c13.094 0 23.746-10.653 23.746-23.746v-48.508c0-13.094-10.652-23.746-23.746-23.746zm8.746 72.254c0 4.824-3.925 8.746-8.746 8.746H95.645c-4.825 0-8.747-3.922-8.747-8.746v-48.508c0-4.824 3.922-8.746 8.747-8.746h48.507c4.82 0 8.746 3.922 8.746 8.746zm0 0M138.39 222.227c25.801 0 46.79-20.989 46.79-46.786s-20.989-46.785-46.79-46.785c-25.796 0-46.785 20.989-46.785 46.785s20.989 46.786 46.786 46.786zm0-78.57c17.528 0 31.79 14.257 31.79 31.784s-14.262 31.786-31.79 31.786-31.785-14.258-31.785-31.786 14.258-31.785 31.786-31.785zm0 0M373.832 351.688c-25.797 0-46.785 20.988-46.785 46.785s20.988 46.785 46.785 46.785 46.785-20.988 46.785-46.785-20.988-46.785-46.785-46.785zm0 78.57c-17.527 0-31.785-14.258-31.785-31.785s14.258-31.785 31.785-31.785 31.785 14.257 31.785 31.785-14.258 31.785-31.785 31.785zm0 0M318.742 274.168l-68.68-39.098c-2.3-1.308-5.117-1.308-7.417 0l-68.676 39.098c-5.047 2.871-5.047 10.164 0 13.035l68.676 39.094c2.296 1.308 5.12 1.312 7.417 0l21.43-12.2c3.602-2.046 4.856-6.624 2.809-10.226-2.047-3.598-6.63-4.855-10.23-2.808l-17.72 10.085-53.515-30.464 53.516-30.465 53.52 30.465-11.782 6.707c-3.602 2.05-4.86 6.629-2.809 10.226 2.047 3.602 6.625 4.86 10.227 2.809l23.23-13.223c5.047-2.871 5.051-10.164.004-13.035zm0 0M200.59 182.941h100.926l-7.215 5.942c-3.2 2.637-3.656 7.363-1.024 10.558 2.625 3.188 7.352 3.66 10.559 1.024l23.305-19.2c3.695-3.003 3.683-8.613.043-11.613l-23.348-19.23c-3.195-2.637-7.922-2.18-10.555 1.02-2.636 3.195-2.18 7.921 1.02 10.558l7.215 5.941H200.59c-4.145 0-7.5 3.36-7.5 7.5 0 4.145 3.355 7.5 7.5 7.5zm0 0M335.172 286.48l23.336 19.227c1.398 1.148 3.086 1.711 4.765 1.711 2.164 0 4.309-.934 5.793-2.73 2.633-3.2 2.176-7.926-1.02-10.56l-7.218-5.944h18.137c11.379 0 20.637-9.258 20.637-20.637v-30.379c0-4.145-3.356-7.5-7.5-7.5-4.141 0-7.5 3.355-7.5 7.5v30.379c0 3.11-2.528 5.637-5.637 5.637h-18.137l7.219-5.942c3.195-2.633 3.652-7.36 1.02-10.558-2.633-3.196-7.364-3.653-10.56-1.02-31.378 25.852-21.597 17.707-23.5 19.363-3.609 3.164-3.312 8.606.165 11.453zm0 0M315.5 398.246l-23.336-19.223c-3.2-2.632-7.926-2.175-10.559 1.02-2.632 3.2-2.175 7.926 1.024 10.559l7.215 5.945h-30.352c-3.11 0-5.64-2.531-5.64-5.64v-45.872c0-4.144-3.356-7.5-7.5-7.5-4.141 0-7.5 3.356-7.5 7.5v45.871c0 1.953.273 3.848.785 5.64h-51.739c-4.14 0-7.5 3.356-7.5 7.5 0 4.142 3.36 7.5 7.5 7.5h101.946l-7.215 5.942c-3.2 2.633-3.656 7.36-1.024 10.559 1.485 1.8 3.63 2.73 5.793 2.73 1.68 0 3.372-.562 4.766-1.71 31.379-25.852 21.598-17.708 23.5-19.364 3.555-3.113 3.371-8.555-.164-11.457zm0 0M133.035 288.184h18.863c4.141 0 7.5-3.356 7.5-7.5 0-4.145-3.359-7.5-7.5-7.5h-18.863c-11.379 0-20.637 9.257-20.637 20.636v24.293l-5.945-7.215c-2.633-3.199-7.36-3.656-10.558-1.023-3.196 2.637-3.653 7.36-1.02 10.559l19.234 23.347c2.996 3.64 8.579 3.64 11.575 0l19.234-23.347c2.633-3.196 2.176-7.922-1.02-10.559-3.199-2.633-7.925-2.176-10.558 1.023l-5.945 7.215V293.82c.003-3.105 2.53-5.636 5.64-5.636zm0 0"/>
</svg>
