<?xml version="1.0" encoding="utf-8"?>
<!-- Generator: Adobe Illustrator 24.2.3, SVG Export Plug-In . SVG Version: 6.00 Build 0)  -->
<svg version="1.1" id="Capa_1" xmlns="http://www.w3.org/2000/svg" xmlns:xlink="http://www.w3.org/1999/xlink" x="0px" y="0px"
	 viewBox="0 0 612 171" style="enable-background:new 0 0 612 171;" xml:space="preserve">
<style type="text/css">
	.st0{fill:none;}
	.st1{fill:none;stroke:#FFFFFF;stroke-width:4;stroke-linecap:round;stroke-linejoin:round;}
	.st2{fill:none;stroke:#FFFFFF;stroke-width:4;stroke-linejoin:round;}
	.st3{fill:#FFFFFF;}
</style>
<g id="Logo_Rootstack_Blanco">
	<g>
		<polygon class="st0" points="102.33,161.54 47.62,109.08 25.75,37.18 102.33,82.29 		"/>
		<polygon class="st1" points="102.33,161.54 47.62,109.08 25.75,37.18 102.33,82.29 		"/>
		<polygon class="st0" points="153.94,107.72 102.33,161.54 102.33,82.29 174.29,36.16 		"/>
		<polygon class="st2" points="153.94,107.72 102.33,161.54 102.33,82.29 174.29,36.16 		"/>
		<polygon class="st0" points="174.29,36.16 102.34,82.3 25.74,37.18 100.02,14.46 		"/>
		<polygon class="st1" points="174.29,36.16 102.34,82.3 25.74,37.18 100.02,14.46 		"/>
		<line class="st2" x1="49.24" y1="51.02" x2="62.01" y2="122.88"/>
		<line class="st2" x1="80.25" y1="140.37" x2="76.82" y2="67.26"/>
		<line class="st2" x1="125.78" y1="67.26" x2="122.64" y2="140.37"/>
		<line class="st2" x1="151.12" y1="51.02" x2="139.41" y2="122.88"/>
		<line class="st2" x1="33.69" y1="63.29" x2="102.34" y2="108.58"/>
		<line class="st2" x1="41.83" y1="90.05" x2="102.34" y2="137.31"/>
		<line class="st2" x1="102.33" y1="137.31" x2="158.97" y2="90.05"/>
		<line class="st2" x1="102.33" y1="108.58" x2="166.58" y2="63.29"/>
		<line class="st2" x1="125.78" y1="67.26" x2="49.24" y2="29.99"/>
		<line class="st2" x1="151.12" y1="51.02" x2="78.53" y2="21.03"/>
		<line class="st2" x1="49.24" y1="51.02" x2="122.64" y2="21.03"/>
		<line class="st2" x1="76.82" y1="67.26" x2="147.1" y2="28.21"/>
	</g>
	<g>
		<path class="st3" d="M183.6,57.61h7.14v8.31c4.8-5.22,11.73-8.41,19.51-8.41v7.14c-10.65,0-19.08,8.31-19.51,18.65v27.08h-7.14
			V57.61z"/>
		<path class="st3" d="M265.99,84.04c0,14.82-11.82,26.65-26.86,26.65c-14.93,0-26.65-11.83-26.65-26.65
			c0-15.03,11.51-26.86,26.65-26.86C253.52,57.18,265.99,68.91,265.99,84.04 M258.85,83.94c0-10.87-8.74-19.61-19.62-19.61
			c-10.76,0-19.61,8.74-19.61,19.61c0,10.77,8.85,19.62,19.61,19.62C250.12,103.55,258.85,94.71,258.85,83.94"/>
		<path class="st3" d="M325.04,84.04c0,14.82-11.82,26.65-26.86,26.65c-14.93,0-26.65-11.83-26.65-26.65
			c0-15.03,11.51-26.86,26.65-26.86C312.57,57.18,325.04,68.91,325.04,84.04 M317.9,83.94c0-10.87-8.74-19.61-19.62-19.61
			c-10.76,0-19.62,8.74-19.62,19.61c0,10.77,8.86,19.62,19.62,19.62C309.17,103.55,317.9,94.71,317.9,83.94"/>
		<path class="st3" d="M332.93,47.59h7.14v9.7h19.4v7.14h-19.4v19.5c0,10.67,8.64,19.4,19.51,19.4v7.15
			c-14.92,0-26.64-11.83-26.64-26.55V47.59z"/>
		<path class="st3" d="M359.12,103.33c10.88,0,19.51-8.74,19.51-19.5c0-14.82,11.72-26.65,26.64-26.65v7.14
			c-10.87,0-19.5,8.74-19.5,19.51c0,14.81-11.74,26.64-26.65,26.64V103.33z"/>
		<path class="st3" d="M408.8,47.79h7.14v9.7h19.4v7.14h-19.4v19.5c0,10.67,8.64,19.4,19.5,19.4v7.15
			c-14.92,0-26.64-11.83-26.64-26.55V47.79z"/>
		<path class="st3" d="M492.8,84.25c0,1.17-0.11,2.44-0.22,3.52c0.22,5.97,3.31,11.51,8.21,14.92v8.21
			c-5.55-2.45-9.81-6.6-12.48-11.72c-4.79,7.14-13.01,11.72-22.38,11.72c-14.92,0-26.64-11.83-26.64-26.65
			c0-15.03,11.51-26.86,26.64-26.86C480.31,57.39,492.8,69.12,492.8,84.25 M485.65,84.14c0-10.76-8.85-19.61-19.62-19.61
			c-10.87,0-19.61,8.85-19.61,19.61c0,10.88,8.74,19.62,19.61,19.62C476.8,103.76,485.65,95.02,485.65,84.14"/>
		<path class="st3" d="M542.78,69.97l-0.11-0.1c-7.67-7.68-20.03-7.68-27.71,0c-7.67,7.56-7.67,20.04,0,27.71
			c7.57,7.67,20.15,7.67,27.71,0l5.02,5.01v0.11c-10.55,10.44-27.18,10.54-37.74,0c-10.55-10.67-10.55-27.29-0.11-37.84
			c10.66-10.67,27.82-10.13,37.95,0L542.78,69.97z"/>
		<path class="st3" d="M555.46,30.85h7.14V76.9c10.89,0,19.52-8.64,19.52-19.52h7.14c0,14.29-10.87,25.8-25.05,26.65
			c14.18,0.85,25.05,12.25,25.05,26.54h-7.14c0-10.87-8.63-19.5-19.52-19.5v19.5h-7.14V30.85z"/>
	</g>
</g>
</svg>
