<svg xmlns="http://www.w3.org/2000/svg" width="937pt" height="937pt" viewBox="-93 0 937 937.5">
    <g fill="rgb(0%,0%,0%)">
        <path d="M608.82 363.484l-21.07 23.032 95.824 87.843C706.133 495.113 718.992 524.355 719 555v382.5h31.25V555c-.04-39.414-16.57-77-45.594-103.676zm0 0"/>
        <path d="M484.625 0H78.375C35.25.055.305 35 .25 78.125v781.25c.055 43.125 35 78.07 78.125 78.125H469v-27.953c-.074-70.387 20.762-139.227 59.875-197.75 4.14-6.203 3.309-14.457-1.953-19.719L417.547 582.703c-10.11-10.121-15.469-24.039-14.762-38.324.711-14.293 7.426-27.606 18.48-36.676 21.294-16.277 51.407-13.953 69.954 5.387l154.234 154.238 22.094-22.094L562.75 540.406V78.125C562.695 35 527.75.055 484.625 0zM531.5 509.156l-18.188-18.187c-29.976-30.625-78.187-33.817-111.937-7.399-17.852 14.672-28.684 36.211-29.813 59.301-1.125 23.086 7.547 45.574 23.891 61.926L495.922 705.27c-37.469 60.378-57.563 129.925-58.063 200.98H78.375c-25.883 0-46.875-20.992-46.875-46.875V812.5h390.625v-31.25H31.5V125h500zm0-415.406h-500V78.125c0-25.883 20.992-46.875 46.875-46.875h406.25c25.883 0 46.875 20.992 46.875 46.875zm0 0"/>
        <path d="M94 281.25h62.5c17.262 0 31.25-13.988 31.25-31.25v-62.5c0-17.262-13.988-31.25-31.25-31.25H94c-17.262 0-31.25 13.988-31.25 31.25V250c0 17.262 13.988 31.25 31.25 31.25zm0-93.75h62.5V250H94zm0 0M250.25 281.25h62.5c17.262 0 31.25-13.988 31.25-31.25v-62.5c0-17.262-13.988-31.25-31.25-31.25h-62.5c-17.262 0-31.25 13.988-31.25 31.25V250c0 17.262 13.988 31.25 31.25 31.25zm0-93.75h62.5V250h-62.5zm0 0M406.5 281.25H469c17.262 0 31.25-13.988 31.25-31.25v-62.5c0-17.262-13.988-31.25-31.25-31.25h-62.5c-17.262 0-31.25 13.988-31.25 31.25V250c0 17.262 13.988 31.25 31.25 31.25zm0-93.75H469V250h-62.5zm0 0M94 437.5h62.5c17.262 0 31.25-13.988 31.25-31.25v-62.5c0-17.262-13.988-31.25-31.25-31.25H94c-17.262 0-31.25 13.988-31.25 31.25v62.5c0 17.262 13.988 31.25 31.25 31.25zm0-93.75h62.5v62.5H94zm0 0M94 593.75h62.5c17.262 0 31.25-13.988 31.25-31.25V500c0-17.262-13.988-31.25-31.25-31.25H94c-17.262 0-31.25 13.988-31.25 31.25v62.5c0 17.262 13.988 31.25 31.25 31.25zM94 500h62.5v62.5H94zm0 0M250.25 437.5h62.5c17.262 0 31.25-13.988 31.25-31.25v-62.5c0-17.262-13.988-31.25-31.25-31.25h-62.5c-17.262 0-31.25 13.988-31.25 31.25v62.5c0 17.262 13.988 31.25 31.25 31.25zm0-93.75h62.5v62.5h-62.5zm0 0M406.5 437.5H469c17.262 0 31.25-13.988 31.25-31.25v-62.5c0-17.262-13.988-31.25-31.25-31.25h-62.5c-17.262 0-31.25 13.988-31.25 31.25v62.5c0 17.262 13.988 31.25 31.25 31.25zm0-93.75H469v62.5h-62.5zm0 0M250.25 593.75h62.5c17.262 0 31.25-13.988 31.25-31.25V500c0-17.262-13.988-31.25-31.25-31.25h-62.5c-17.262 0-31.25 13.988-31.25 31.25v62.5c0 17.262 13.988 31.25 31.25 31.25zm0-93.75h62.5v62.5h-62.5zm0 0M94 750h62.5c17.262 0 31.25-13.988 31.25-31.25v-62.5c0-17.262-13.988-31.25-31.25-31.25H94c-17.262 0-31.25 13.988-31.25 31.25v62.5C62.75 736.012 76.738 750 94 750zm0-93.75h62.5v62.5H94zm0 0M250.25 750h62.5c17.262 0 31.25-13.988 31.25-31.25v-62.5c0-17.262-13.988-31.25-31.25-31.25h-62.5c-17.262 0-31.25 13.988-31.25 31.25v62.5c0 17.262 13.988 31.25 31.25 31.25zm0-93.75h62.5v62.5h-62.5zm0 0M265.875 843.75h31.25V875h-31.25zm0 0"/>
    </g>
</svg>
